<?xml version="1.0" standalone="no"?>
<!DOCTYPE svg PUBLIC "-//W3C//DTD SVG 20010904//EN"
 "http://www.w3.org/TR/2001/REC-SVG-20010904/DTD/svg10.dtd">
<svg version="1.0" xmlns="http://www.w3.org/2000/svg"
 width="100.000000pt" height="100.000000pt" viewBox="0 0 100.000000 100.000000"
 preserveAspectRatio="xMidYMid meet">

<g transform="translate(0.000000,100.000000) scale(0.100000,-0.100000)"
fill="#000000" stroke="none">
<path d="M170 991 c-71 -15 -111 -46 -146 -111 -18 -32 -19 -62 -19 -385 0
-383 -1 -376 62 -439 54 -55 63 -56 435 -56 381 0 395 2 451 69 46 55 48 81
45 452 l-3 346 -28 40 c-15 22 -46 50 -70 64 -42 24 -43 24 -367 26 -179 1
-341 -2 -360 -6z m517 -333 c101 -101 183 -186 183 -190 0 -5 -31 -8 -70 -8
-68 0 -70 -1 -76 -27 -11 -44 -50 -116 -76 -139 -12 -12 -40 -30 -61 -41 l-38
-19 26 -24 c30 -28 31 -41 5 -65 -20 -18 -21 -18 -50 10 l-30 29 -30 -29 c-29
-28 -30 -28 -50 -10 -26 24 -25 37 5 65 l26 24 -38 19 c-21 11 -49 29 -61 41
-26 23 -65 95 -76 139 -6 26 -8 27 -76 27 -39 0 -70 3 -70 7 0 9 362 373 370
373 3 0 87 -82 187 -182z"/>
<path d="M346 438 c40 -133 172 -179 257 -90 22 23 57 88 57 107 0 3 -72 5
-161 5 l-160 0 7 -22z"/>
</g>
</svg>
